<svg xmlns="http://www.w3.org/2000/svg" viewBox="0 0 128 128">
  <path fill="#F9AB00" d="M38.8 38.4c-14.1 0-25.6 11.5-25.6 25.6s11.5 25.6 25.6 25.6c8.5 0 16-4.1 20.6-10.5-3.3-3.8-6.1-8.2-8.1-13.1-2.9 4.6-7.8 7.6-13.5 7.6-8.9 0-16.1-7.2-16.1-16.1s7.2-16.1 16.1-16.1c5.7 0 10.7 3 13.6 7.6 2-4.9 4.8-9.3 8.1-13.1-4.7-6-12.2-9.6-20.7-9.6z"/>
  <path fill="#E37400" d="M89.2 38.4c-8.5 0-16 4.1-20.6 10.5 3.3 3.8 6.1 8.2 8.1 13.1 2.9-4.6 7.8-7.6 13.5-7.6 8.9 0 16.1 7.2 16.1 16.1s-7.2 16.1-16.1 16.1c-5.7 0-10.7-3-13.6-7.6-2 4.9-4.8 9.3-8.1 13.1 4.7 6 12.2 9.6 20.7 9.6 14.1 0 25.6-11.5 25.6-25.6s-11.5-25.6-25.6-25.6z"/>
  <path fill="#E37400" d="M64 48.9c-4.4 5.3-7.5 11.9-8.9 19.1 2.8 1.9 5.8 3 8.9 3s6.1-1.1 8.9-3c-1.4-7.2-4.5-13.8-8.9-19.1z"/>
</svg>